<?xml version="1.0" encoding="UTF-8" standalone="no"?>
<!-- Created with Inkscape (http://www.inkscape.org/) -->

<svg
   xmlns:dc="http://purl.org/dc/elements/1.1/"
   xmlns:cc="http://creativecommons.org/ns#"
   xmlns:rdf="http://www.w3.org/1999/02/22-rdf-syntax-ns#"
   xmlns:svg="http://www.w3.org/2000/svg"
   xmlns="http://www.w3.org/2000/svg"
   xmlns:sodipodi="http://sodipodi.sourceforge.net/DTD/sodipodi-0.dtd"
   xmlns:inkscape="http://www.inkscape.org/namespaces/inkscape"
   width="63.713825"
   height="130.62329"
   id="svg5928"
   version="1.1"
   inkscape:version="0.48.4 r9939"
   inkscape:export-filename="/home/jvhoof/Desktop/report/jumper.png"
   inkscape:export-xdpi="90"
   inkscape:export-ydpi="90"
   sodipodi:docname="New document 6">
  <defs
     id="defs5930" />
  <sodipodi:namedview
     id="base"
     pagecolor="#ffffff"
     bordercolor="#666666"
     borderopacity="1.0"
     inkscape:pageopacity="0.0"
     inkscape:pageshadow="2"
     inkscape:zoom="1.4"
     inkscape:cx="122.96539"
     inkscape:cy="7.197435"
     inkscape:document-units="px"
     inkscape:current-layer="layer1"
     showgrid="false"
     fit-margin-top="0"
     fit-margin-left="0"
     fit-margin-right="0"
     fit-margin-bottom="0"
     inkscape:window-width="1600"
     inkscape:window-height="845"
     inkscape:window-x="0"
     inkscape:window-y="0"
     inkscape:window-maximized="1" />
  <metadata
     id="metadata5933">
    <rdf:RDF>
      <cc:Work
         rdf:about="">
        <dc:format>image/svg+xml</dc:format>
        <dc:type
           rdf:resource="http://purl.org/dc/dcmitype/StillImage" />
        <dc:title></dc:title>
      </cc:Work>
    </rdf:RDF>
  </metadata>
  <g
     inkscape:label="Layer 1"
     inkscape:groupmode="layer"
     id="layer1"
     transform="translate(-26.000238,-5.6220124)">
    <g
       transform="matrix(2.0424817,0,0,2.0424817,-236.11432,-2013.1852)"
       id="g9200">
      <path
         sodipodi:nodetypes="ccccc"
         inkscape:connector-curvature="0"
         id="path6694"
         d="m 152.69309,1039.5307 0.38925,-0.9571 -0.0821,-25.1023 -0.44194,2.2097 z"
         style="fill:#256463;fill-opacity:1;stroke:none" />
      <path
         style="fill:#92d6d5;fill-opacity:1;stroke:#92d6d5;stroke-width:0.46596679px;stroke-linecap:butt;stroke-linejoin:miter;stroke-opacity:1"
         d="m 155.62412,999.7581 1.58861,-0.11768 -0.0588,3.47138 -1.70628,0.059 z"
         id="path6459-6-5"
         inkscape:connector-curvature="0" />
      <path
         inkscape:connector-curvature="0"
         id="path6457-3-3"
         d="m 132.20692,999.7581 -1.5886,-0.11768 0.0588,3.47138 1.70627,0.059 z"
         style="fill:#92d6d5;fill-opacity:1;stroke:#92d6d5;stroke-width:0.46596679px;stroke-linecap:butt;stroke-linejoin:miter;stroke-opacity:1" />
      <path
         sodipodi:nodetypes="ccccc"
         inkscape:connector-curvature="0"
         id="path12875-7-1-8-8"
         d="m 144.55398,994.31788 c 0.18026,-1.51643 0.50177,-2.99719 0.24853,-4.62316 l -0.18207,-0.046 c 0.13927,1.50253 0.041,3.03325 -0.28821,4.59139 z"
         style="fill:#006c69;fill-opacity:1;stroke:#006c69;stroke-width:0.05436793px;stroke-linecap:butt;stroke-linejoin:miter;stroke-opacity:1" />
      <path
         style="fill:#099296;fill-opacity:1;stroke:#099296;stroke-width:0.05436793px;stroke-linecap:butt;stroke-linejoin:miter;stroke-opacity:1"
         d="m 133.54193,1017.634 -4.11065,8.2561 0,2.1279 1.41746,5.6602 2.23251,-0.4256 -1.4529,-6.2985 3.79172,-7.9157 z"
         id="path4751-5-6"
         inkscape:connector-curvature="0"
         sodipodi:nodetypes="cccccccc" />
      <g
         transform="matrix(-0.04959923,0,0,0.05956615,178.78877,939.583)"
         id="g4753-8-2">
        <path
           transform="translate(-300.08103,21.647854)"
           d="m 1218.5715,1280.9161 c 0,19.7245 -15.9899,35.7143 -35.7143,35.7143 -19.7245,0 -35.7143,-15.9898 -35.7143,-35.7143 0,-19.7244 15.9898,-35.7142 35.7143,-35.7142 19.7244,0 35.7143,15.9898 35.7143,35.7142 z"
           sodipodi:ry="35.714287"
           sodipodi:rx="35.714287"
           sodipodi:cy="1280.9161"
           sodipodi:cx="1182.8572"
           id="path4755-2-8"
           style="fill:#92d6d5;fill-opacity:1;stroke:#92d6d5;stroke-width:2.35599995;stroke-miterlimit:4;stroke-opacity:1;stroke-dasharray:none;stroke-dashoffset:0"
           sodipodi:type="arc" />
        <path
           id="path4757-3-3"
           d="m 851.03433,1320.8377 c 0.49403,0.8703 0.8807,1.8097 1.44339,2.6335 1.31757,1.929 2.80017,3.7216 4.45872,5.3619 1.65843,1.6406 3.47064,3.1387 5.42089,4.442 1.95026,1.3033 4.06208,2.414 6.255,3.3314 2.19281,0.9174 4.47789,1.6427 6.86429,2.1257 2.3865,0.4831 4.84691,0.7298 7.37773,0.7298 2.53072,0 5.02325,-0.2467 7.40965,-0.7298 2.38639,-0.483 4.67148,-1.2083 6.8644,-2.1257 2.19292,-0.9174 4.27261,-2.0281 6.22287,-3.3314 1.95025,-1.3033 3.79449,-2.8014 5.45302,-4.442 1.65854,-1.6403 3.14105,-3.4329 4.45871,-5.3619 1.31755,-1.929 2.44049,-3.9862 3.36799,-6.1552 0.9275,-2.1691 1.6608,-4.4293 2.14919,-6.7897 0.48828,-2.3605 0.73771,-4.8259 0.73771,-7.3292 0,-2.5032 -0.24943,-4.9368 -0.73771,-7.2973 -0.48839,-2.3606 -1.22169,-4.6525 -2.14919,-6.8215 -0.9275,-2.1691 -2.05044,-4.2262 -3.36799,-6.1553 -0.33771,-0.4943 -0.79356,-0.8876 -1.15477,-1.3642 -8.06678,21.0532 -26.67964,35.2873 -61.0739,39.2789 z"
           style="opacity:0.2;fill:#000000;stroke:#000000;stroke-width:1.02085578px;stroke-linecap:butt;stroke-linejoin:miter;stroke-opacity:1"
           inkscape:connector-curvature="0" />
      </g>
      <g
         transform="matrix(-0.04959923,0,0,0.05956615,173.96939,948.39242)"
         id="g4759-9-1">
        <path
           transform="translate(-300.08103,21.647854)"
           d="m 1218.5715,1280.9161 c 0,19.7245 -15.9899,35.7143 -35.7143,35.7143 -19.7245,0 -35.7143,-15.9898 -35.7143,-35.7143 0,-19.7244 15.9898,-35.7142 35.7143,-35.7142 19.7244,0 35.7143,15.9898 35.7143,35.7142 z"
           sodipodi:ry="35.714287"
           sodipodi:rx="35.714287"
           sodipodi:cy="1280.9161"
           sodipodi:cx="1182.8572"
           id="path4761-6-6"
           style="fill:#92d6d5;fill-opacity:1;stroke:#92d6d5;stroke-width:2.35599995;stroke-miterlimit:4;stroke-opacity:1;stroke-dasharray:none;stroke-dashoffset:0"
           sodipodi:type="arc" />
        <path
           id="path4763-4-5"
           d="m 851.03433,1320.8377 c 0.49403,0.8703 0.8807,1.8097 1.44339,2.6335 1.31757,1.929 2.80017,3.7216 4.45872,5.3619 1.65843,1.6406 3.47064,3.1387 5.42089,4.442 1.95026,1.3033 4.06208,2.414 6.255,3.3314 2.19281,0.9174 4.47789,1.6427 6.86429,2.1257 2.3865,0.4831 4.84691,0.7298 7.37773,0.7298 2.53072,0 5.02325,-0.2467 7.40965,-0.7298 2.38639,-0.483 4.67148,-1.2083 6.8644,-2.1257 2.19292,-0.9174 4.27261,-2.0281 6.22287,-3.3314 1.95025,-1.3033 3.79449,-2.8014 5.45302,-4.442 1.65854,-1.6403 3.14105,-3.4329 4.45871,-5.3619 1.31755,-1.929 2.44049,-3.9862 3.36799,-6.1552 0.9275,-2.1691 1.6608,-4.4293 2.14919,-6.7897 0.48828,-2.3605 0.73771,-4.8259 0.73771,-7.3292 0,-2.5032 -0.24943,-4.9368 -0.73771,-7.2973 -0.48839,-2.3606 -1.22169,-4.6525 -2.14919,-6.8215 -0.9275,-2.1691 -2.05044,-4.2262 -3.36799,-6.1553 -0.33771,-0.4943 -0.79356,-0.8876 -1.15477,-1.3642 -8.06678,21.0532 -26.67964,35.2873 -61.0739,39.2789 z"
           style="opacity:0.2;fill:#000000;stroke:#000000;stroke-width:1.02085578px;stroke-linecap:butt;stroke-linejoin:miter;stroke-opacity:1"
           inkscape:connector-curvature="0" />
      </g>
      <path
         style="fill:#92d6d5;fill-opacity:1;stroke:#92d6d5;stroke-width:0.05436793px;stroke-linecap:butt;stroke-linejoin:miter;stroke-opacity:1"
         d="m 134.30974,1032.8129 c -0.11444,-0.2807 -0.42603,-0.2411 -0.73827,-0.2006 l -2.66439,0.724 c -1.22489,0.3267 -1.10947,0.6327 -1.07389,0.94 l 0.33543,1.6191 c 0.0815,0.2193 0.0321,0.5121 0.55901,0.4818 l 3.18381,-0.8132 c 0.61611,-0.2429 0.7295,-0.5757 0.65912,-0.9413 z"
         id="path4765-6-7"
         inkscape:connector-curvature="0"
         sodipodi:nodetypes="ccccccccc" />
      <path
         style="fill:#099296;fill-opacity:1;stroke:#099296;stroke-width:0.05436793px;stroke-linecap:butt;stroke-linejoin:miter;stroke-opacity:1"
         d="m 131.68513,1036.1465 c 0,0 0.39313,1.0541 0.39594,1.6154 9.3e-4,0.1179 -0.012,0.2551 -0.0798,0.3404 -0.17145,0.2162 -0.47075,0.3762 -0.70719,0.2841 -0.10766,-0.042 -0.14837,-0.2093 -0.19748,-0.3317 -0.19402,-0.4838 -0.36676,-1.5497 -0.36676,-1.5497 z"
         id="path4767-0-5"
         inkscape:connector-curvature="0"
         sodipodi:nodetypes="csssscc" />
      <path
         inkscape:connector-curvature="0"
         style="opacity:0.2;fill:#000000;stroke:#000000;stroke-width:0.05436793px;stroke-linecap:butt;stroke-linejoin:miter;stroke-opacity:1"
         d="m 131.9368,1038.1347 c -0.0304,0.035 -0.0601,0.071 -0.0959,0.1018 -0.0544,0.046 -0.11227,0.087 -0.17424,0.118 -0.0619,0.031 -0.12612,0.052 -0.18988,0.06 -0.0638,0.01 -0.12802,0 -0.18783,-0.017 -0.0273,-0.01 -0.0495,-0.025 -0.07,-0.048 -0.0205,-0.023 -0.0392,-0.05 -0.0551,-0.08 -0.0318,-0.061 -0.057,-0.1336 -0.0835,-0.1937 -0.0524,-0.1185 -0.10353,-0.2728 -0.15245,-0.4386 -0.0489,-0.1658 -0.0955,-0.3433 -0.13453,-0.5051 -0.0654,-0.271 -0.0945,-0.424 -0.10807,-0.4913 0.30637,0.8968 0.74877,1.3015 1.2515,1.4937 z"
         id="path4773-2-0" />
      <path
         style="opacity:0.2;fill:#000000;stroke:#000000;stroke-width:0.05436793px;stroke-linecap:butt;stroke-linejoin:miter;stroke-opacity:1"
         d="m 134.5259,1034.1421 -4.70867,-0.024 0.32234,1.8278 c 0.0896,0.2223 0.10835,0.5016 0.52453,0.4606 l 3.32768,-0.8491 c 0.82911,-0.3222 0.71661,-0.8605 0.53412,-1.4149 z"
         id="path4775-7-1"
         inkscape:connector-curvature="0"
         sodipodi:nodetypes="cccccc" />
      <g
         id="g6735">
        <path
           style="fill:#92d6d5;fill-opacity:1;stroke:#92d6d5;stroke-width:0.05436793px;stroke-linecap:butt;stroke-linejoin:miter;stroke-opacity:1"
           d="m 153.5474,1032.8129 c 0.11444,-0.2807 0.42604,-0.2411 0.73827,-0.2006 l 2.66439,0.724 c 1.22489,0.3267 1.10948,0.6327 1.07389,0.94 l -0.33543,1.6191 c -0.0815,0.2193 -0.0321,0.5121 -0.559,0.4818 l -3.18382,-0.8132 c -0.61611,-0.2429 -0.7295,-0.5757 -0.65911,-0.9413 z"
           id="path13002-2-5-2-8-5"
           inkscape:connector-curvature="0"
           sodipodi:nodetypes="ccccccccc" />
        <path
           style="opacity:0.2;fill:#000000;stroke:#000000;stroke-width:0.05436793px;stroke-linecap:butt;stroke-linejoin:miter;stroke-opacity:1"
           d="m 153.33124,1034.1421 4.70867,-0.024 -0.32234,1.8278 c -0.0896,0.2223 -0.10835,0.5016 -0.52453,0.4606 l -3.32768,-0.8491 c -0.8291,-0.3222 -0.71661,-0.8605 -0.53412,-1.4149 z"
           id="path13083-4-4-6-0-1"
           inkscape:connector-curvature="0"
           sodipodi:nodetypes="cccccc" />
        <g
           transform="matrix(0.04959923,0,0,0.05956615,109.06837,939.583)"
           id="g12906-7-5-1-2-0-2-3">
          <path
             transform="translate(-300.08103,21.647854)"
             d="m 1218.5715,1280.9161 c 0,19.7245 -15.9899,35.7143 -35.7143,35.7143 -19.7245,0 -35.7143,-15.9898 -35.7143,-35.7143 0,-19.7244 15.9898,-35.7142 35.7143,-35.7142 19.7244,0 35.7143,15.9898 35.7143,35.7142 z"
             sodipodi:ry="35.714287"
             sodipodi:rx="35.714287"
             sodipodi:cy="1280.9161"
             sodipodi:cx="1182.8572"
             id="path12881-3-5-1-4-4-2-0"
             style="fill:#92d6d5;fill-opacity:1;stroke:#92d6d5;stroke-width:2.35599995;stroke-miterlimit:4;stroke-opacity:1;stroke-dasharray:none;stroke-dashoffset:0"
             sodipodi:type="arc" />
          <path
             id="path12883-7-9-5-6-8-7-1"
             d="m 851.03433,1320.8377 c 0.49403,0.8703 0.8807,1.8097 1.44339,2.6335 1.31757,1.929 2.80017,3.7216 4.45872,5.3619 1.65843,1.6406 3.47064,3.1387 5.42089,4.442 1.95026,1.3033 4.06208,2.414 6.255,3.3314 2.19281,0.9174 4.47789,1.6427 6.86429,2.1257 2.3865,0.4831 4.84691,0.7298 7.37773,0.7298 2.53072,0 5.02325,-0.2467 7.40965,-0.7298 2.38639,-0.483 4.67148,-1.2083 6.8644,-2.1257 2.19292,-0.9174 4.27261,-2.0281 6.22287,-3.3314 1.95025,-1.3033 3.79449,-2.8014 5.45302,-4.442 1.65854,-1.6403 3.14105,-3.4329 4.45871,-5.3619 1.31755,-1.929 2.44049,-3.9862 3.36799,-6.1552 0.9275,-2.1691 1.6608,-4.4293 2.14919,-6.7897 0.48828,-2.3605 0.73771,-4.8259 0.73771,-7.3292 0,-2.5032 -0.24943,-4.9368 -0.73771,-7.2973 -0.48839,-2.3606 -1.22169,-4.6525 -2.14919,-6.8215 -0.9275,-2.1691 -2.05044,-4.2262 -3.36799,-6.1553 -0.33771,-0.4943 -0.79356,-0.8876 -1.15477,-1.3642 -8.06678,21.0532 -26.67964,35.2873 -61.0739,39.2789 z"
             style="opacity:0.2;fill:#000000;stroke:#000000;stroke-width:1.02085578px;stroke-linecap:butt;stroke-linejoin:miter;stroke-opacity:1"
             inkscape:connector-curvature="0" />
        </g>
        <path
           style="fill:#099296;fill-opacity:1;stroke:#099296;stroke-width:0.05436793px;stroke-linecap:butt;stroke-linejoin:miter;stroke-opacity:1"
           d="m 154.31521,1017.634 4.11065,8.2561 0,2.1279 -1.41746,5.6602 -2.23251,-0.4256 1.4529,-6.2985 -3.79172,-7.9157 z"
           id="path12982-5-8-2-7-1"
           inkscape:connector-curvature="0"
           sodipodi:nodetypes="cccccccc" />
        <g
           transform="matrix(0.04959923,0,0,0.05956615,113.88775,948.39242)"
           id="g12906-7-5-9-8-2-7">
          <path
             transform="translate(-300.08103,21.647854)"
             d="m 1218.5715,1280.9161 c 0,19.7245 -15.9899,35.7143 -35.7143,35.7143 -19.7245,0 -35.7143,-15.9898 -35.7143,-35.7143 0,-19.7244 15.9898,-35.7142 35.7143,-35.7142 19.7244,0 35.7143,15.9898 35.7143,35.7142 z"
             sodipodi:ry="35.714287"
             sodipodi:rx="35.714287"
             sodipodi:cy="1280.9161"
             sodipodi:cx="1182.8572"
             id="path12881-3-5-5-1-3-5"
             style="fill:#92d6d5;fill-opacity:1;stroke:#92d6d5;stroke-width:2.35599995;stroke-miterlimit:4;stroke-opacity:1;stroke-dasharray:none;stroke-dashoffset:0"
             sodipodi:type="arc" />
          <path
             id="path12883-7-9-56-5-7-4"
             d="m 851.03433,1320.8377 c 0.49403,0.8703 0.8807,1.8097 1.44339,2.6335 1.31757,1.929 2.80017,3.7216 4.45872,5.3619 1.65843,1.6406 3.47064,3.1387 5.42089,4.442 1.95026,1.3033 4.06208,2.414 6.255,3.3314 2.19281,0.9174 4.47789,1.6427 6.86429,2.1257 2.3865,0.4831 4.84691,0.7298 7.37773,0.7298 2.53072,0 5.02325,-0.2467 7.40965,-0.7298 2.38639,-0.483 4.67148,-1.2083 6.8644,-2.1257 2.19292,-0.9174 4.27261,-2.0281 6.22287,-3.3314 1.95025,-1.3033 3.79449,-2.8014 5.45302,-4.442 1.65854,-1.6403 3.14105,-3.4329 4.45871,-5.3619 1.31755,-1.929 2.44049,-3.9862 3.36799,-6.1552 0.9275,-2.1691 1.6608,-4.4293 2.14919,-6.7897 0.48828,-2.3605 0.73771,-4.8259 0.73771,-7.3292 0,-2.5032 -0.24943,-4.9368 -0.73771,-7.2973 -0.48839,-2.3606 -1.22169,-4.6525 -2.14919,-6.8215 -0.9275,-2.1691 -2.05044,-4.2262 -3.36799,-6.1553 -0.33771,-0.4943 -0.79356,-0.8876 -1.15477,-1.3642 -8.06678,21.0532 -26.67964,35.2873 -61.0739,39.2789 z"
             style="opacity:0.2;fill:#000000;stroke:#000000;stroke-width:1.02085578px;stroke-linecap:butt;stroke-linejoin:miter;stroke-opacity:1"
             inkscape:connector-curvature="0" />
        </g>
        <path
           style="fill:#099296;fill-opacity:1;stroke:#099296;stroke-width:0.05436793px;stroke-linecap:butt;stroke-linejoin:miter;stroke-opacity:1"
           d="m 156.17201,1036.1465 c 0,0 -0.39313,1.0541 -0.39594,1.6154 -9.3e-4,0.1179 0.012,0.2551 0.0798,0.3404 0.17145,0.2162 0.47076,0.3762 0.70719,0.2841 0.10767,-0.042 0.14838,-0.2093 0.19749,-0.3317 0.19401,-0.4838 0.36675,-1.5497 0.36675,-1.5497 z"
           id="path13022-9-5-2-6-6-6"
           inkscape:connector-curvature="0"
           sodipodi:nodetypes="csssscc" />
        <path
           style="fill:#099296;fill-opacity:1;stroke:#099296;stroke-width:0.05436793px;stroke-linecap:butt;stroke-linejoin:miter;stroke-opacity:1"
           d="m 153.9206,1035.6439 c 0,0 -0.26328,1.1109 -0.19908,1.6669 0.0135,0.1167 0.0423,0.2503 0.11957,0.3232 0.19547,0.1844 0.51078,0.2912 0.73378,0.1594 0.10155,-0.06 0.12187,-0.2327 0.15586,-0.3623 0.13428,-0.5122 0.17804,-1.5968 0.17804,-1.5968 z"
           id="path13022-99-9-7-1-6"
           inkscape:connector-curvature="0"
           sodipodi:nodetypes="csssscc" />
        <path
           inkscape:connector-curvature="0"
           style="opacity:0.2;fill:#000000;stroke:#000000;stroke-width:0.05436793px;stroke-linecap:butt;stroke-linejoin:miter;stroke-opacity:1"
           d="m 153.91555,1037.6564 c 0.0353,0.028 0.0699,0.057 0.10973,0.079 0.0605,0.034 0.12362,0.061 0.18919,0.078 0.0656,0.017 0.13184,0.023 0.19581,0.018 0.064,-0.01 0.12638,-0.025 0.18213,-0.058 0.0254,-0.015 0.0449,-0.036 0.0616,-0.062 0.0167,-0.027 0.031,-0.057 0.042,-0.091 0.022,-0.067 0.0358,-0.1439 0.0528,-0.2087 0.0336,-0.128 0.0605,-0.2909 0.0834,-0.4646 0.023,-0.1737 0.0419,-0.3585 0.0558,-0.5261 0.0232,-0.2807 0.0288,-0.4376 0.0318,-0.5067 -0.16539,0.9488 -0.53911,1.4433 -1.00431,1.7422 z"
           id="path13045-5-9-5-0-5" />
        <path
           inkscape:connector-curvature="0"
           style="opacity:0.2;fill:#000000;stroke:#000000;stroke-width:0.05436793px;stroke-linecap:butt;stroke-linejoin:miter;stroke-opacity:1"
           d="m 155.92034,1038.1347 c 0.0304,0.035 0.0601,0.071 0.0959,0.1018 0.0544,0.046 0.11227,0.087 0.17424,0.118 0.0619,0.031 0.12612,0.052 0.18988,0.06 0.0638,0.01 0.12802,0 0.18784,-0.017 0.0273,-0.01 0.0495,-0.025 0.07,-0.048 0.0205,-0.023 0.0392,-0.05 0.0551,-0.08 0.0318,-0.061 0.057,-0.1336 0.0835,-0.1937 0.0524,-0.1185 0.10353,-0.2728 0.15245,-0.4386 0.0489,-0.1658 0.0955,-0.3433 0.13453,-0.5051 0.0654,-0.271 0.0945,-0.424 0.10807,-0.4913 -0.30637,0.8968 -0.74877,1.3015 -1.2515,1.4937 z"
           id="path13045-3-9-6-9-4-6" />
      </g>
      <path
         sodipodi:nodetypes="ccccc"
         transform="translate(0,988.36218)"
         inkscape:connector-curvature="0"
         id="path6692"
         d="m 135.54353,27.164156 2.51907,-1.972002 14.93763,0.0054 -0.29831,1.955593 z"
         style="fill:#0cb8bd;fill-opacity:1;stroke:none" />
      <rect
         y="1011.3798"
         x="142.79381"
         height="7.8261852"
         width="2.4176421"
         id="rect4675-2-8"
         style="fill:#099296;fill-opacity:1;stroke:#099296;stroke-width:1.09375048;stroke-linecap:butt;stroke-linejoin:miter;stroke-miterlimit:4;stroke-opacity:1;stroke-dasharray:none;stroke-dashoffset:0" />
      <rect
         ry="0"
         style="fill:#099296;fill-opacity:1;stroke:#099296;stroke-width:0.85842955;stroke-linecap:butt;stroke-linejoin:miter;stroke-miterlimit:4;stroke-opacity:1;stroke-dasharray:none;stroke-dashoffset:0"
         id="rect4519-1-6"
         width="24.549776"
         height="16.877649"
         x="131.69948"
         y="994.62256" />
      <rect
         y="995.7597"
         x="132.82249"
         height="14.60334"
         width="21.715357"
         id="rect4517-0-4"
         style="fill:#92d6d5;fill-opacity:1;stroke:#92d6d5;stroke-width:0.75099063;stroke-linecap:butt;stroke-linejoin:miter;stroke-miterlimit:4;stroke-opacity:1;stroke-dasharray:none;stroke-dashoffset:0" />
      <path
         transform="matrix(0.04584888,0.01158301,-0.00964488,0.05506217,89.995999,934.89876)"
         d="m 1301.4286,1011.2733 c 0,23.4721 -20.7868,42.5 -46.4286,42.5 -25.6418,0 -46.4286,-19.0279 -46.4286,-42.5 0,-23.47209 20.7868,-42.49998 46.4286,-42.49998 25.6418,0 46.4286,19.02789 46.4286,42.49998 z"
         sodipodi:ry="42.5"
         sodipodi:rx="46.42857"
         sodipodi:cy="1011.2733"
         sodipodi:cx="1255"
         id="path12700-8-0-9-9-8-3"
         style="fill:#006c69;fill-opacity:1;stroke:#006c69;stroke-width:2.35599995;stroke-miterlimit:4;stroke-opacity:1;stroke-dasharray:none;stroke-dashoffset:0"
         sodipodi:type="arc" />
      <path
         transform="matrix(0.02957313,0.0074712,-0.00622108,0.03551583,107.29634,959.45419)"
         d="m 1301.4286,1011.2733 c 0,23.4721 -20.7868,42.5 -46.4286,42.5 -25.6418,0 -46.4286,-19.0279 -46.4286,-42.5 0,-23.47209 20.7868,-42.49998 46.4286,-42.49998 25.6418,0 46.4286,19.02789 46.4286,42.49998 z"
         sodipodi:ry="42.5"
         sodipodi:rx="46.42857"
         sodipodi:cy="1011.2733"
         sodipodi:cx="1255"
         id="path12700-8-1-5-7-2"
         style="fill:#008783;fill-opacity:1;stroke:#008783;stroke-width:2.35599995;stroke-miterlimit:4;stroke-opacity:1;stroke-dasharray:none;stroke-dashoffset:0"
         sodipodi:type="arc" />
      <path
         transform="matrix(0.01249185,0.00315587,-0.00262782,0.01500207,124.63413,985.17119)"
         d="m 1301.4286,1011.2733 c 0,23.4721 -20.7868,42.5 -46.4286,42.5 -25.6418,0 -46.4286,-19.0279 -46.4286,-42.5 0,-23.47209 20.7868,-42.49998 46.4286,-42.49998 25.6418,0 46.4286,19.02789 46.4286,42.49998 z"
         sodipodi:ry="42.5"
         sodipodi:rx="46.42857"
         sodipodi:cy="1011.2733"
         sodipodi:cx="1255"
         id="path12700-2-7-8-4"
         style="fill:#ffffff;fill-opacity:1;stroke:#ffffff;stroke-width:2.35599995;stroke-miterlimit:4;stroke-opacity:1;stroke-dasharray:none;stroke-dashoffset:0"
         sodipodi:type="arc" />
      <path
         transform="matrix(0.00775711,0.00195971,-0.0016318,0.00931589,130.61392,992.96931)"
         d="m 1301.4286,1011.2733 c 0,23.4721 -20.7868,42.5 -46.4286,42.5 -25.6418,0 -46.4286,-19.0279 -46.4286,-42.5 0,-23.47209 20.7868,-42.49998 46.4286,-42.49998 25.6418,0 46.4286,19.02789 46.4286,42.49998 z"
         sodipodi:ry="42.5"
         sodipodi:rx="46.42857"
         sodipodi:cy="1011.2733"
         sodipodi:cx="1255"
         id="path12700-0-4-8-5-2"
         style="fill:#ffffff;fill-opacity:1;stroke:#ffffff;stroke-width:2.35599995;stroke-miterlimit:4;stroke-opacity:1;stroke-dasharray:none;stroke-dashoffset:0"
         sodipodi:type="arc" />
      <path
         transform="matrix(0.04293519,0.01084691,-0.00903195,0.05156298,105.32295,939.4871)"
         d="m 1301.4286,1011.2733 c 0,23.4721 -20.7868,42.5 -46.4286,42.5 -25.6418,0 -46.4286,-19.0279 -46.4286,-42.5 0,-23.47209 20.7868,-42.49998 46.4286,-42.49998 25.6418,0 46.4286,19.02789 46.4286,42.49998 z"
         sodipodi:ry="42.5"
         sodipodi:rx="46.42857"
         sodipodi:cy="1011.2733"
         sodipodi:cx="1255"
         id="path12700-8-0-0-3-9-5-4"
         style="fill:#006c69;fill-opacity:1;stroke:#006c69;stroke-width:2.35599995;stroke-miterlimit:4;stroke-opacity:1;stroke-dasharray:none;stroke-dashoffset:0"
         sodipodi:type="arc" />
      <path
         transform="matrix(0.02769376,0.0069964,-0.00582573,0.0332588,121.02906,962.4996)"
         d="m 1301.4286,1011.2733 c 0,23.4721 -20.7868,42.5 -46.4286,42.5 -25.6418,0 -46.4286,-19.0279 -46.4286,-42.5 0,-23.47209 20.7868,-42.49998 46.4286,-42.49998 25.6418,0 46.4286,19.02789 46.4286,42.49998 z"
         sodipodi:ry="42.5"
         sodipodi:rx="46.42857"
         sodipodi:cy="1011.2733"
         sodipodi:cx="1255"
         id="path12700-8-8-6-8-2-4"
         style="fill:#008783;fill-opacity:1;stroke:#008783;stroke-width:2.35599995;stroke-miterlimit:4;stroke-opacity:1;stroke-dasharray:none;stroke-dashoffset:0"
         sodipodi:type="arc" />
      <path
         transform="matrix(0.01169799,0.00295532,-0.00246082,0.0140487,137.23781,986.5441)"
         d="m 1301.4286,1011.2733 c 0,23.4721 -20.7868,42.5 -46.4286,42.5 -25.6418,0 -46.4286,-19.0279 -46.4286,-42.5 0,-23.47209 20.7868,-42.49998 46.4286,-42.49998 25.6418,0 46.4286,19.02789 46.4286,42.49998 z"
         sodipodi:ry="42.5"
         sodipodi:rx="46.42857"
         sodipodi:cy="1011.2733"
         sodipodi:cx="1255"
         id="path12700-5-8-4-0-5"
         style="fill:#ffffff;fill-opacity:1;stroke:#ffffff;stroke-width:2.35599995;stroke-miterlimit:4;stroke-opacity:1;stroke-dasharray:none;stroke-dashoffset:0"
         sodipodi:type="arc" />
      <path
         transform="matrix(0.00726415,0.00183517,-0.0015281,0.00872387,142.83759,993.84667)"
         d="m 1301.4286,1011.2733 c 0,23.4721 -20.7868,42.5 -46.4286,42.5 -25.6418,0 -46.4286,-19.0279 -46.4286,-42.5 0,-23.47209 20.7868,-42.49998 46.4286,-42.49998 25.6418,0 46.4286,19.02789 46.4286,42.49998 z"
         sodipodi:ry="42.5"
         sodipodi:rx="46.42857"
         sodipodi:cy="1011.2733"
         sodipodi:cx="1255"
         id="path12700-0-1-1-6-4-7"
         style="fill:#ffffff;fill-opacity:1;stroke:#ffffff;stroke-width:2.35599995;stroke-miterlimit:4;stroke-opacity:1;stroke-dasharray:none;stroke-dashoffset:0"
         sodipodi:type="arc" />
      <path
         inkscape:connector-curvature="0"
         id="path12849-66-6-9-3"
         d="m 137.27949,999.49072 0.2837,-1.61966 -3.14874,1.01887 z"
         style="fill:#006d6a;fill-opacity:1;stroke:#006d6a;stroke-width:0.05436793px;stroke-linecap:butt;stroke-linejoin:miter;stroke-opacity:1" />
      <path
         inkscape:connector-curvature="0"
         id="path12849-6-3-9-4-2"
         d="m 149.91903,999.58807 -0.16632,-1.51564 2.84016,1.2046 z"
         style="fill:#006d6a;fill-opacity:1;stroke:#006d6a;stroke-width:0.0502173px;stroke-linecap:butt;stroke-linejoin:miter;stroke-opacity:1" />
      <path
         transform="matrix(0.05442849,0.01375052,-0.01298312,0.07412004,82.762163,917.28183)"
         d="m 1322.8572,725.11261 c 0,3.9942 -5.5165,7.23214 -12.3214,7.23214 -6.805,0 -12.3215,-3.23794 -12.3215,-7.23214 0,-3.9942 5.5165,-7.23214 12.3215,-7.23214 6.8049,0 12.3214,3.23794 12.3214,7.23214 z"
         sodipodi:ry="7.2321429"
         sodipodi:rx="12.321428"
         sodipodi:cy="725.11261"
         sodipodi:cx="1310.5358"
         id="path12879-9-4-2-0-6"
         style="fill:#099296;fill-opacity:1;stroke:#099296;stroke-width:2.35599995;stroke-miterlimit:4;stroke-opacity:1;stroke-dasharray:none;stroke-dashoffset:0"
         sodipodi:type="arc" />
      <rect
         style="fill:#099296;fill-opacity:1;stroke:#099296;stroke-width:0.93193358;stroke-linecap:butt;stroke-linejoin:miter;stroke-miterlimit:4;stroke-opacity:1;stroke-dasharray:none;stroke-dashoffset:0"
         id="rect4779-9-5"
         width="4.2362776"
         height="11.885113"
         x="146.21017"
         y="1039.1874"
         ry="0" />
      <rect
         style="fill:#92d6d5;fill-opacity:1;stroke:#92d6d5;stroke-width:0.93193358;stroke-linecap:butt;stroke-linejoin:miter;stroke-miterlimit:4;stroke-opacity:1;stroke-dasharray:none;stroke-dashoffset:0"
         id="rect4783-0-7"
         width="6.3544168"
         height="1.6474414"
         x="145.38644"
         y="1050.2488" />
      <path
         sodipodi:nodetypes="ccccc"
         inkscape:connector-curvature="0"
         id="path4785-8-9"
         d="m 145.57241,1012.1127 -0.0136,3.2168 -0.36399,0.014 0.0468,-3.2058 z"
         style="opacity:0.2;fill:#000000;stroke:#000000;stroke-width:0.40750521px;stroke-linecap:butt;stroke-linejoin:miter;stroke-opacity:1" />
      <path
         style="opacity:0.2;fill:#000000;stroke:#000000;stroke-width:0.46596679px;stroke-linecap:butt;stroke-linejoin:miter;stroke-opacity:1"
         d="m 147.95432,1039.7301 -2.03861,0.01 0.0104,9.8238 2.14262,0 z"
         id="path4789-3-0"
         inkscape:connector-curvature="0"
         sodipodi:nodetypes="ccccc" />
      <g
         transform="matrix(0.4659668,0,0,0.4659668,-84.196278,724.62707)"
         id="g6209-2-8">
        <path
           sodipodi:nodetypes="csssscc"
           inkscape:connector-curvature="0"
           id="path4769-7-0"
           d="m 468.12954,667.46573 c 0,0 0.56501,2.38395 0.42724,3.57712 -0.029,0.25062 -0.0909,0.53735 -0.25661,0.69362 -0.41949,0.39576 -1.09618,0.62506 -1.57476,0.34212 -0.21793,-0.12887 -0.26154,-0.49925 -0.33448,-0.77749 -0.28817,-1.09929 -0.38209,-3.42681 -0.38209,-3.42681 z"
           style="fill:#099296;fill-opacity:1;stroke:#099296;stroke-width:0.11667769px;stroke-linecap:butt;stroke-linejoin:miter;stroke-opacity:1" />
        <path
           id="path4771-5-7"
           d="m 468.14037,671.78465 c -0.0757,0.06 -0.15002,0.1221 -0.23548,0.16992 -0.1299,0.0727 -0.2653,0.13163 -0.40603,0.16728 -0.14072,0.0357 -0.28293,0.0496 -0.42021,0.0376 -0.1373,-0.0122 -0.27122,-0.0531 -0.39087,-0.12382 -0.0545,-0.0321 -0.0963,-0.0767 -0.13217,-0.1339 -0.0359,-0.0572 -0.0666,-0.1228 -0.0902,-0.19454 -0.0473,-0.14349 -0.0768,-0.30881 -0.11327,-0.44793 -0.0721,-0.2748 -0.12977,-0.62429 -0.1791,-0.99708 -0.0493,-0.37278 -0.0899,-0.76936 -0.11967,-1.129 -0.0498,-0.60254 -0.0617,-0.93911 -0.0683,-1.08752 0.35493,2.03626 1.15696,3.09754 2.15532,3.73902 z"
           style="opacity:0.2;fill:#000000;stroke:#000000;stroke-width:0.11667769px;stroke-linecap:butt;stroke-linejoin:miter;stroke-opacity:1"
           inkscape:connector-curvature="0" />
        <rect
           style="fill:#099296;fill-opacity:1;stroke:#099296;stroke-width:2;stroke-linecap:butt;stroke-linejoin:miter;stroke-miterlimit:4;stroke-opacity:1;stroke-dasharray:none;stroke-dashoffset:0"
           id="rect4777-7-5"
           width="9.0913725"
           height="25.506351"
           x="476.28693"
           y="675.07019"
           ry="0" />
        <rect
           style="fill:#92d6d5;fill-opacity:1;stroke:#92d6d5;stroke-width:2;stroke-linecap:butt;stroke-linejoin:miter;stroke-miterlimit:4;stroke-opacity:1;stroke-dasharray:none;stroke-dashoffset:0"
           id="rect4781-6-5"
           width="13.637059"
           height="3.5355339"
           x="474.0141"
           y="698.80878" />
        <path
           style="opacity:0.2;fill:#000000;stroke:#000000;stroke-width:1px;stroke-linecap:butt;stroke-linejoin:miter;stroke-opacity:1"
           d="m 480.15626,676.23495 -4.37501,0.0223 0.0223,21.08259 4.59822,2e-5 z"
           id="path4787-5-2"
           inkscape:connector-curvature="0"
           sodipodi:nodetypes="ccccc" />
        <path
           style="fill:#92d6d5;fill-opacity:1;stroke:#92d6d5;stroke-width:1.08198643;stroke-linecap:butt;stroke-linejoin:miter;stroke-miterlimit:4;stroke-opacity:1;stroke-dashoffset:0"
           d="m 475.81213,678.73065 c 3.19317,1.57621 6.51868,1.69668 10.00939,0 l 0,1.04428 c -3.5669,1.67892 -6.85811,1.34922 -10.00939,0 z"
           id="rect4793-3-3"
           inkscape:connector-curvature="0"
           sodipodi:nodetypes="ccccc" />
        <path
           sodipodi:nodetypes="ccccc"
           inkscape:connector-curvature="0"
           id="path4796-9-3"
           d="m 475.81213,685.42291 c 3.19317,1.57621 6.51868,1.69668 10.00939,0 l 0,1.04428 c -3.5669,1.67892 -6.85811,1.34922 -10.00939,0 z"
           style="fill:#92d6d5;fill-opacity:1;stroke:#92d6d5;stroke-width:1.08198643;stroke-linecap:butt;stroke-linejoin:miter;stroke-miterlimit:4;stroke-opacity:1;stroke-dashoffset:0" />
        <path
           style="fill:#92d6d5;fill-opacity:1;stroke:#92d6d5;stroke-width:1.08198643;stroke-linecap:butt;stroke-linejoin:miter;stroke-miterlimit:4;stroke-opacity:1;stroke-dashoffset:0"
           d="m 475.81213,691.73637 c 3.19317,1.57621 6.51868,1.69668 10.00939,0 l 0,1.04428 c -3.5669,1.67892 -6.85811,1.34922 -10.00939,0 z"
           id="path4798-5-9"
           inkscape:connector-curvature="0"
           sodipodi:nodetypes="ccccc" />
      </g>
      <path
         style="fill:#92d6d5;fill-opacity:1;stroke:#92d6d5;stroke-width:0.50416976;stroke-linecap:butt;stroke-linejoin:miter;stroke-miterlimit:4;stroke-opacity:1;stroke-dashoffset:0"
         d="m 150.66769,1040.893 c -1.48791,0.7345 -3.03749,0.7906 -4.66404,0 l 0,0.4866 c 1.66205,0.7823 3.19565,0.6287 4.66404,0 z"
         id="path4800-9-2"
         inkscape:connector-curvature="0"
         sodipodi:nodetypes="ccccc" />
      <path
         sodipodi:nodetypes="ccccc"
         inkscape:connector-curvature="0"
         id="path4802-0-5"
         d="m 150.66769,1044.0114 c -1.48791,0.7345 -3.03749,0.7906 -4.66404,0 l 0,0.4866 c 1.66205,0.7823 3.19565,0.6287 4.66404,0 z"
         style="fill:#92d6d5;fill-opacity:1;stroke:#92d6d5;stroke-width:0.50416976;stroke-linecap:butt;stroke-linejoin:miter;stroke-miterlimit:4;stroke-opacity:1;stroke-dashoffset:0" />
      <path
         style="fill:#92d6d5;fill-opacity:1;stroke:#92d6d5;stroke-width:0.50416976;stroke-linecap:butt;stroke-linejoin:miter;stroke-miterlimit:4;stroke-opacity:1;stroke-dashoffset:0"
         d="m 150.66769,1046.9533 c -1.48791,0.7344 -3.03749,0.7906 -4.66404,0 l 0,0.4866 c 1.66205,0.7823 3.19565,0.6286 4.66404,0 z"
         id="path4804-1-3"
         inkscape:connector-curvature="0"
         sodipodi:nodetypes="ccccc" />
      <rect
         style="fill:#099296;fill-opacity:1;stroke:#099296;stroke-width:0.82037205;stroke-linecap:butt;stroke-linejoin:miter;stroke-miterlimit:4;stroke-opacity:1;stroke-dasharray:none;stroke-dashoffset:0"
         id="rect4695-5-4"
         width="16.319828"
         height="23.18763"
         x="135.96756"
         y="1015.9307" />
      <rect
         y="1017.0558"
         x="136.75943"
         height="20.937407"
         width="14.736085"
         id="rect4517-8-1-8"
         style="fill:#92d6d5;fill-opacity:1;stroke:#92d6d5;stroke-width:0.74075979;stroke-linecap:butt;stroke-linejoin:miter;stroke-miterlimit:4;stroke-opacity:1;stroke-dasharray:none;stroke-dashoffset:0" />
      <path
         style="fill:#0cb8bd;fill-opacity:1;stroke:none"
         d="m 131.25647,994.20376 2.65188,-0.71358 22.98097,0.005 -0.21628,0.70107 z"
         id="path6750"
         inkscape:connector-curvature="0"
         sodipodi:nodetypes="ccccc" />
      <path
         sodipodi:nodetypes="ccccc"
         inkscape:connector-curvature="0"
         id="path6694-0"
         d="m 156.67769,1011.9373 0.28445,-1.0444 -0.0878,-17.38893 -0.19887,0.685 z"
         style="fill:#256463;fill-opacity:1;stroke:none" />
    </g>
  </g>
</svg>
